<?xml version="1.0" standalone="no"?>
<!DOCTYPE svg PUBLIC "-//W3C//DTD SVG 20010904//EN"
 "http://www.w3.org/TR/2001/REC-SVG-20010904/DTD/svg10.dtd">
<svg version="1.0" xmlns="http://www.w3.org/2000/svg"
 width="512.000000pt" height="512.000000pt" viewBox="0 0 512.000000 512.000000"
 preserveAspectRatio="xMidYMid meet">

<g transform="translate(0.000000,512.000000) scale(0.100000,-0.100000)"
fill="#000000" stroke="none">
<path d="M0 4820 l0 -300 300 0 300 0 0 300 0 300 -300 0 -300 0 0 -300z"/>
<path d="M1700 4820 l0 -300 1410 0 1410 0 0 -1410 0 -1410 300 0 300 0 0
1260 0 1260 -150 0 -150 0 0 300 0 300 -300 0 -300 0 0 150 0 150 -1260 0
-1260 0 0 -300z"/>
<path d="M0 2160 l0 -1260 150 0 150 0 0 -300 0 -300 300 0 300 0 0 -150 0
-150 1260 0 1260 0 0 300 0 300 -1410 0 -1410 0 0 1410 0 1410 -300 0 -300 0
0 -1260z"/>
<path d="M1700 2560 l0 -860 860 0 860 0 0 860 0 860 -860 0 -860 0 0 -860z"/>
<path d="M4520 300 l0 -300 300 0 300 0 0 300 0 300 -300 0 -300 0 0 -300z"/>
</g>
</svg>
